<svg width="32" height="32" viewBox="0 0 32 32" fill="none" xmlns="http://www.w3.org/2000/svg">
<path d="M27.781 4.21901C27.8849 4.32301 27.9558 4.45522 27.9852 4.59923C28.0145 4.74323 28.0009 4.89268 27.946 5.02901L19.2175 26.8495C19.1406 27.0417 19.0122 27.2089 18.8463 27.3328C18.6805 27.4566 18.4837 27.5323 18.2776 27.5516C18.0715 27.5708 17.8641 27.5328 17.6782 27.4418C17.4923 27.3507 17.3352 27.2101 17.224 27.0355L12.457 19.543L4.96452 14.776C4.7895 14.665 4.64855 14.5078 4.55722 14.3217C4.4659 14.1356 4.42776 13.928 4.447 13.7216C4.46624 13.5152 4.54212 13.3182 4.66626 13.1522C4.79041 12.9862 4.95799 12.8578 5.15052 12.781L26.971 4.05551C27.1073 4.00063 27.2568 3.98701 27.4008 4.01634C27.5448 4.04568 27.677 4.11667 27.781 4.22051V4.21901ZM13.954 19.105L18.0955 25.612L25.195 7.86401L13.954 19.105ZM24.1345 6.80351L6.38652 13.903L12.895 18.043L24.1345 6.80351Z" fill="#607B96"/>
</svg>
