<svg width="157" height="30" viewBox="0 0 157 30" fill="none" xmlns="http://www.w3.org/2000/svg">
<g clip-path="url(#clip0_15_497)">
<path d="M94.8843 28.8036L61.8056 28.8036C57.6635 28.8036 54.3056 25.4458 54.3056 21.3036L54.3056 8.61248C54.3056 4.47035 57.6635 1.11248 61.8056 1.11248L94.8843 1.11249C99.0264 1.11249 102.384 4.47035 102.384 8.61249L102.384 21.3037C102.384 25.4458 99.0264 28.8036 94.8843 28.8036Z" fill="#010C15"/>
<path d="M78.345 17.9581L74.0949 11.9581L82.595 11.9581L78.345 17.9581Z" fill="white"/>
<path d="M94.8843 28.8036L61.8056 28.8036C57.6635 28.8036 54.3056 25.4458 54.3056 21.3036L54.3056 8.61248C54.3056 4.47035 57.6635 1.11248 61.8056 1.11248L94.8843 1.11249C99.0264 1.11249 102.384 4.47035 102.384 8.61249L102.384 21.3037C102.384 25.4458 99.0264 28.8036 94.8843 28.8036Z" stroke="#1E2D3D"/>
<path d="M148.345 28.8036L115.267 28.8036C111.124 28.8036 107.767 25.4458 107.767 21.3036L107.767 8.61248C107.767 4.47035 111.124 1.11248 115.267 1.11248L148.345 1.11249C152.487 1.11249 155.845 4.47035 155.845 8.61249L155.845 21.3037C155.845 25.4458 152.487 28.8036 148.345 28.8036Z" fill="#010C15"/>
<path d="M134.806 14.9581L128.806 19.2081L128.806 10.7081L134.806 14.9581Z" fill="white"/>
<path d="M148.345 28.8036L115.267 28.8036C111.124 28.8036 107.767 25.4458 107.767 21.3036L107.767 8.61248C107.767 4.47035 111.124 1.11248 115.267 1.11248L148.345 1.11249C152.487 1.11249 155.845 4.47035 155.845 8.61249L155.845 21.3037C155.845 25.4458 152.487 28.8036 148.345 28.8036Z" stroke="#1E2D3D"/>
<path d="M41.4238 28.8036L8.34518 28.8036C4.20305 28.8036 0.845177 25.4458 0.845177 21.3036L0.845179 8.61248C0.845179 4.47035 4.20304 1.11248 8.34518 1.11248L41.4238 1.11249C45.566 1.11249 48.9238 4.47035 48.9238 8.61249L48.9238 21.3037C48.9238 25.4458 45.566 28.8036 41.4238 28.8036Z" fill="#010C15"/>
<path d="M21.8845 14.9581L27.8845 10.7081L27.8845 19.2081L21.8845 14.9581Z" fill="white"/>
<path d="M41.4238 28.8036L8.34518 28.8036C4.20305 28.8036 0.845177 25.4458 0.845177 21.3036L0.845179 8.61248C0.845179 4.47035 4.20304 1.11248 8.34518 1.11248L41.4238 1.11249C45.566 1.11249 48.9238 4.47035 48.9238 8.61249L48.9238 21.3037C48.9238 25.4458 45.566 28.8036 41.4238 28.8036Z" stroke="#1E2D3D"/>
</g>
<defs>
<clipPath id="clip0_15_497">
<rect width="156" height="28.6912" fill="white" transform="translate(0.345154 0.61248)"/>
</clipPath>
</defs>
</svg>
