<svg width="50" height="29" viewBox="0 0 50 29" fill="none" xmlns="http://www.w3.org/2000/svg">
<path d="M8.80615 0.612488H41.8848C46.0269 0.612488 49.3848 3.97035 49.3848 8.11249V20.8036C49.3848 24.9458 46.0269 28.3036 41.8848 28.3036H8.80616C4.66402 28.3036 1.30615 24.9458 1.30615 20.8036V8.11249C1.30615 3.97035 4.66402 0.612488 8.80615 0.612488Z" fill="#010C15"/>
<path d="M25.3455 11.4581L29.5955 17.4581H21.0955L25.3455 11.4581Z" fill="white"/>
<path d="M8.80615 0.612488H41.8848C46.0269 0.612488 49.3848 3.97035 49.3848 8.11249V20.8036C49.3848 24.9458 46.0269 28.3036 41.8848 28.3036H8.80616C4.66402 28.3036 1.30615 24.9458 1.30615 20.8036V8.11249C1.30615 3.97035 4.66402 0.612488 8.80615 0.612488Z" stroke="#1E2D3D"/>
</svg>
